<?xml version="1.0" encoding="utf-8"?>
<!-- Generator: Adobe Illustrator 17.1.0, SVG Export Plug-In . SVG Version: 6.00 Build 0)  -->
<!DOCTYPE svg PUBLIC "-//W3C//DTD SVG 1.1//EN" "http://www.w3.org/Graphics/SVG/1.1/DTD/svg11.dtd">
<svg version="1.1" id="Laag_2" xmlns="http://www.w3.org/2000/svg" xmlns:xlink="http://www.w3.org/1999/xlink" x="0px" y="0px"
	 viewBox="0 0 186.1 37.5" enable-background="new 0 0 186.1 37.5" xml:space="preserve">
<g>
	<text transform="matrix(0.583 0 0 0.583 38.9525 5.3013)" fill="#CD9F02" font-family="'Avenir-Black'" font-size="6.0308">®</text>
	<path fill-rule="evenodd" clip-rule="evenodd" fill="#CD9F02" d="M40.5,20.2c-0.3,0.1-0.5,0.2-0.7,0.4c-0.2,0.2-0.4,0.4-0.5,0.8
		c-0.2,0.3-0.2,0.7-0.2,1.3l0,6.2c0,0.7-0.1,1.4-0.3,1.9c-0.2,0.5-0.5,1-0.9,1.3c-0.4,0.4-0.8,0.6-1.3,0.8c-0.5,0.2-1,0.3-1.5,0.3
		l-2.4,0l0-2.7l1.8,0c0.6,0,1-0.2,1.2-0.6c0.2-0.4,0.2-0.9,0.2-1.3l0-5.9c0-0.8,0.1-1.4,0.4-1.9c0.2-0.5,0.5-0.9,0.8-1.1
		c0.3-0.3,0.7-0.5,1-0.6c0.4-0.1,0.7-0.2,0.9-0.2v-0.1c-0.3,0-0.6-0.1-0.9-0.3c-0.4-0.2-0.7-0.4-1-0.7c-0.3-0.3-0.6-0.6-0.8-1.1
		c-0.2-0.4-0.4-1-0.4-1.6l0-6.1c0-0.5-0.1-0.9-0.2-1.3c-0.2-0.4-0.6-0.6-1.2-0.6l-1.8,0l0-2.7l2.4,0c0.5,0,1.1,0.1,1.5,0.3
		c0.5,0.2,0.9,0.4,1.3,0.8c0.4,0.4,0.7,0.8,0.9,1.3C38.9,7.1,39,7.8,39,8.5l0,6.4c0,0.5,0.1,0.8,0.2,1.1c0.2,0.3,0.3,0.5,0.5,0.7
		c0.2,0.2,0.5,0.3,0.7,0.3c0.3,0.1,0.5,0.1,0.7,0.1l0,2.9C41,20.1,40.7,20.1,40.5,20.2z M21.5,35.6c-3.5,0-6.9-1-6.9-4
		c0-1.8,0-10.8,0-14.8c0-1.1-0.2-1.8,1-3.9C16.7,10.5,19,6.1,20,4c1-2,1.1-2.3,1.5-2.3c0.4,0,0.4,0.2,1.5,2.3
		c1.1,2.1,3.3,6.5,4.5,8.8c1,1.9,1,2.7,1,3.9c0,4,0,13,0,14.8C28.4,34.6,24.9,35.6,21.5,35.6z M23.3,33.7l0-16.2l0-0.4l0,0l0,0V17
		c-1.2,0.1-2.4,0.1-3.6,0l0,16.8C20.8,33.9,22.1,33.9,23.3,33.7z M16.3,30.8c0,2,1.1,2.7,2.7,2.9l0-16.7c-0.9-0.1-1.8-0.3-2.7-0.6
		c0,0.2,0,0.4,0,0.6C16.3,20,16.3,28.7,16.3,30.8z M25.8,13.8C25,12,24,9.9,22.8,7.6c0,0-0.7,0.2-1.3,0.2c-0.6,0-1.3-0.3-1.3-0.3
		c-1.2,2.3-2.3,4.5-3.1,6.3c-0.4,0.7-0.6,1.2-0.7,1.6c3.2,1.1,6.8,1.1,10,0C26.4,15,26.2,14.5,25.8,13.8z M26.6,16.3
		c-0.9,0.3-1.8,0.5-2.7,0.6v0h0l0,16.7c1.5-0.1,2.6-0.9,2.6-2.8c0-1.9,0-10.7,0-13.9C26.6,16.7,26.6,16.5,26.6,16.3z M6.5,32.8
		C6,32.7,5.6,32.4,5.2,32c-0.4-0.4-0.7-0.8-0.9-1.3C4.1,30.2,4,29.5,4,28.8l0-6.2c0-0.5-0.1-0.9-0.2-1.3c-0.2-0.3-0.3-0.6-0.5-0.8
		c-0.2-0.2-0.5-0.3-0.7-0.4c-0.3-0.1-0.5-0.1-0.7-0.1l0-2.9c0.2,0,0.5,0,0.7-0.1c0.3-0.1,0.5-0.2,0.7-0.3c0.2-0.2,0.4-0.4,0.5-0.7
		C3.9,15.8,4,15.4,4,14.9l0-6.4c0-0.7,0.1-1.4,0.3-1.9c0.2-0.5,0.5-1,0.9-1.3C5.6,4.9,6,4.6,6.5,4.5c0.5-0.2,1-0.3,1.5-0.3l2.4,0
		l0,2.7l-1.8,0c-0.6,0-1,0.2-1.2,0.6C7.3,8,7.3,8.4,7.3,8.9l0,6.1c0,0.6-0.1,1.2-0.4,1.6c-0.2,0.4-0.5,0.8-0.8,1.1
		c-0.3,0.3-0.7,0.5-1,0.7c-0.4,0.2-0.7,0.2-0.9,0.3l0,0.1c0.3,0,0.6,0.1,0.9,0.2c0.4,0.1,0.7,0.3,1,0.6c0.3,0.3,0.6,0.7,0.8,1.1
		c0.2,0.5,0.4,1.1,0.4,1.9l0,5.9c0,0.5,0.1,0.9,0.2,1.3c0.2,0.4,0.6,0.6,1.2,0.6l1.8,0l0,2.7l-2.4,0C7.6,33.1,7,33,6.5,32.8z"/>
	<text transform="matrix(1 0 0 1 49.5277 26.4834)" fill="#CB9F02" font-family="'AvenirNext-Bold'" font-size="22.9512">Superpencil</text>
</g>
</svg>
